<svg xmlns="http://www.w3.org/2000/svg" width="256" height="256" viewBox="0 0 256 256" fill="none">
<path d="M 145.87,47.82 C 134.99,49.91 132.72,49.05 114.14,49.05 H 37.21 C 29.11,49.05 24.77,48.34 21.16,47.41 C 14.68,45.65 11.87,47.91 10.77,53.6 L 6.08,89.14 C 5.06,95.27 4.11,102.68 12.01,102.68 C 17.11,102.68 18.89,99.12 23.06,92.16 C 33.13,74.81 40.96,63.93 56.68,63.93 H 60.62 V 153.79 C 60.62,177.19 58.42,186.92 48.71,197.16 C 45.89,200.15 45.11,201.78 45.96,203.96 C 47.19,207.29 51.67,206.29 60.76,205.93 C 71.92,205.49 88.79,205.86 99.21,205.93 C 107.24,206.15 116.19,206.72 116.97,202.13 C 117.61,198.43 113.05,194.88 109.26,189.76 C 103.81,182.95 102.37,177.19 102.37,154.43 V 64.22 H 107.13 C 114.96,64.22 120.12,68.14 122.73,71.54 C 128.61,61.15 136.85,52.83 145.87,47.82 Z" fill="#163456"/>
<path d="M 185.72,46.41 C 155.42,46.41 126.28,63.01 126.28,95.71 C 126.28,119.96 140.91,131.91 169.28,142.15 L 179.28,145.86 C 195.86,152.21 211.66,158.63 211.66,175.84 C 211.66,187.57 202.71,196.73 187.64,196.73 C 171.92,196.73 162.21,187.14 148.15,164.93 L 140.32,151.62 C 137.78,147.41 135.87,146.91 132.41,146.91 C 126.31,146.91 124.8,151.62 125.16,158.34 L 128.31,200.01 C 128.74,204.71 133.01,206.36 137.18,205.14 C 139.93,204.28 140.85,201.64 146.37,201.93 C 151.13,202.14 160.77,209.03 186.15,209.03 C 223.31,209.03 250.62,190.12 250.62,160.51 C 250.62,137.26 236.92,123.74 207.09,114.29 L 194.12,109.81 C 175.19,103.61 163.19,97.33 163.19,82.3 C 163.19,69.13 172.07,59.9 185.43,59.9 C 199.71,59.9 209.85,68.84 224.06,91.72 C 229.44,100.51 230.75,102.39 236.13,102.39 C 242.01,102.39 242.16,97.91 241.66,92.8 L 239.32,55.22 C 238.75,49.12 235.36,47.91 232.04,48.41 C 227.88,48.91 227.88,52.24 221.78,52.09 C 216.95,52.02 208.85,46.41 185.72,46.41 Z" fill="#163456"/>
</svg>