<?xml version="1.0" encoding="utf-8"?>
<!-- Generator: Adobe Illustrator 19.0.0, SVG Export Plug-In . SVG Version: 6.00 Build 0)  -->
<svg version="1.1" id="layer" xmlns="http://www.w3.org/2000/svg" xmlns:xlink="http://www.w3.org/1999/xlink" x="0px" y="0px"
	 viewBox="-153 -46 652 652" style="enable-background:new -153 -46 652 652;" xml:space="preserve">
<style type="text/css">
	.st0{fill:#39C463;}
</style>
<path d="M-115.8,231.3h20.4v18.2h14.7V264h-14.7v29.9c0,6.3,2,7.5,8.8,7.5h5.9v14.8h-13c-16.5,0-22.1-3.2-22.1-18.7V264h-10.5v-14.5
	h10.5V231.3z M-11.5,295.4c-6,15.8-20,22.6-33.3,22.6c-21.7,0-36.6-13.1-36.6-35.4c0-21.4,16.2-34.9,35.8-34.9
	c22.2,0,35.8,16.8,34.4,40.5h-49.5c0.6,9.5,8,13.8,15.4,13.8c7.8,0,12.7-2.8,15-6.7L-11.5,295.4z M-60.4,275.8h28.9
	c-0.4-8.4-6.2-12.6-14-12.6C-52.9,263.2-59.3,267-60.4,275.8z M59,274H40c-1.8-7.8-6.7-10.5-12.7-10.5c-7.3,0-14.5,5-14.5,19.3
	c0,14.5,7.2,19.3,14.5,19.3c7.5,0,12.2-3.9,13.7-10.3H60c-4.6,19.8-20.6,26.1-34,26.1c-22,0-34.1-14.1-34.1-35.4
	c0-21.3,13.9-34.9,34.1-34.9C39.8,247.6,55,253.9,59,274z M82.7,258.4c2.9-5,10.2-10.3,20.7-10.3c17.1,0,22.5,10.1,22.5,28.2v40.1
	h-20.4v-34.9c0-9.5-0.3-17.3-10.2-17.3c-8.8,0-12.5,5.7-12.5,18.2v34.2H62.4v-90h20.4L82.7,258.4L82.7,258.4z M172.9,269.2
	c-1.4-5-6.6-6.4-13-6.4c-7.1,0-10.6,1.7-10.6,5c0,3.1,2.4,4.9,8.2,6l12.5,2.2c16,2.9,23.7,7.7,23.7,19.4c0,15-13.8,22.6-32.3,22.6
	c-17.8,0-30.4-7.5-32.7-23.3h19c1.8,6.4,7,8.4,14,8.4c7.3,0,12.4-2,12.4-6c0-2.9-2.6-4.9-10.5-6.2l-11.9-2
	c-12.9-2.1-21.7-8.6-21.7-20.4c0-13.3,14-20.6,30.5-20.6c15.2,0,29.1,6.1,31.6,21.4L172.9,269.2L172.9,269.2z M204.2,231.3h20.4
	v18.2h14.7V264h-14.7v29.9c0,6.3,2,7.5,8.8,7.5h5.8v14.8h-12.9c-16.5,0-22.1-3.2-22.1-18.7V264h-10.5v-14.5h10.5V231.3z M285.9,272
	c0-8-3.8-10.6-11.3-10.6c-6.6,0-11,3.4-11.9,9.8h-19.1c1-12.6,12.9-23.7,32.7-23.7c19.3,0,30.2,7.8,29.8,28.1l-0.3,14.5v7
	c0,7.3,0.5,15.2,1.5,19.3h-20.1l-0.3-8.1c-5,7.1-12.9,9.7-22.5,9.7c-12.7,0-23.1-7.4-23.1-19.6c0-16.4,18.5-21.7,44.4-23.7
	L285.9,272z M286.5,286.7c-14.3,1.4-23.8,2.8-23.8,10.2c0,4.3,4.1,7.2,9.4,7.2c8.2,0,14.4-3.5,14.4-15.8V286.7z M352.9,269.2
	c-1.8-0.3-3.8-0.5-5.6-0.4c-9.9,0-15,3.6-15,14v33.5h-20.5v-66.8h19.7v12.7c3.1-8,8.7-12.7,18.2-13.1h1.5c0.6,0,1.1,0,1.7,0.1V269.2
	z M398.1,269.2c-1.4-5-6.6-6.4-13-6.4c-7.1,0-10.6,1.7-10.6,5c0,3.1,2.4,4.9,8.2,6l12.4,2.2c16,2.9,23.7,7.7,23.7,19.4
	c0,15-13.8,22.6-32.3,22.6c-17.7,0-30.4-7.5-32.7-23.3h19c1.8,6.4,7,8.4,14,8.4c7.3,0,12.4-2,12.4-6c0-2.9-2.6-4.9-10.5-6.2l-11.9-2
	c-12.9-2.1-21.6-8.6-21.6-20.4c0-13.3,14-20.6,30.5-20.6c15.2,0,29.1,6.1,31.6,21.4L398.1,269.2L398.1,269.2z"/>
<path class="st0" d="M418.4,333.6v-17.2h55.2v17.2H418.4z"/>
</svg>
